<?xml version="1.0" encoding="utf-8"?>
<!-- Generator: Adobe Illustrator 22.1.0, SVG Export Plug-In . SVG Version: 6.00 Build 0)  -->
<svg version="1.1" id="Layer_1" xmlns="http://www.w3.org/2000/svg" xmlns:xlink="http://www.w3.org/1999/xlink" x="0px" y="0px"
	 viewBox="0 0 138 119.7" style="enable-background:new 0 0 138 119.7;" xml:space="preserve">
<style type="text/css">
	.st0{display:none;}
	.st1{display:inline;}
	.st2{display:inline;clip-path:url(#SVGID_2_);}
	.st3{fill:#90ABBA;}
	.st4{display:inline;clip-path:url(#SVGID_4_);}
	.st5{display:inline;clip-path:url(#SVGID_6_);}
	.st6{clip-path:url(#SVGID_8_);}
	.st7{display:inline;clip-path:url(#SVGID_10_);}
	.st8{display:inline;clip-path:url(#SVGID_12_);}
	.st9{display:inline;clip-path:url(#SVGID_14_);}
	.st10{display:inline;clip-path:url(#SVGID_16_);}
</style>
<g class="st0">
	<defs>
		<rect id="SVGID_1_" x="16.6" y="9.2" width="105.5" height="104.5"/>
	</defs>
	<clipPath id="SVGID_2_" class="st1">
		<use xlink:href="#SVGID_1_"  style="overflow:visible;"/>
	</clipPath>
	<g class="st2">
		<path class="st3" d="M90.3,113.7H16.6l0.1-2.5c0.5-20,16.7-35.7,36.7-35.7c20.1,0,36.2,15.7,36.7,35.7L90.3,113.7z M21.7,108.8
			h63.4C83.5,92.7,70,80.3,53.4,80.3C36.9,80.3,23.4,92.7,21.7,108.8z M99.3,87.2L81,68.8l3.4-3.4l10.1,10.1V64.7h22.8V14.1H37.7
			V9.2h84.4v60.3H99.3V87.2z M53.4,65.5c-10.7,0-19.3-8.7-19.3-19.3c0-10.7,8.7-19.3,19.3-19.3c10.7,0,19.3,8.7,19.3,19.3
			C72.8,56.9,64.1,65.5,53.4,65.5z M53.4,31.7c-8,0-14.5,6.5-14.5,14.5c0,8,6.5,14.5,14.5,14.5c8,0,14.5-6.5,14.5-14.5
			C67.9,38.2,61.4,31.7,53.4,31.7z"/>
	</g>
</g>
<g class="st0">
	<defs>
		<rect id="SVGID_3_" x="18" y="10.1" width="102.7" height="102.7"/>
	</defs>
	<clipPath id="SVGID_4_" class="st1">
		<use xlink:href="#SVGID_3_"  style="overflow:visible;"/>
	</clipPath>
	<g class="st4">
		<path class="st3" d="M120.1,112.8l-25.1-9.7L69.4,77.4l-25.5,25.7l-25.1,9.7l9.6-25.3l25.6-25.7L21.2,28.9
			c-4.3-4.3-4.3-11.3,0-15.5c4.1-4.2,11.4-4.2,15.5,0l32.7,32.9l32.7-32.9c4.1-4.2,11.4-4.2,15.5,0l0,0c4.2,4.3,4.2,11.3,0,15.5
			L84.9,61.8l25.6,25.7L120.1,112.8z M31.6,92.6l-4.5,11.7l11.7-4.5L31.6,92.6z M100,99.8l11.7,4.5l-4.5-11.7L100,99.8z M34.4,88.4
			l8.6,8.7l64.8-65.2l-8.6-8.7L34.4,88.4z M72.8,73.9l23,23.1l2.6-2.6l-23-23.1L72.8,73.9z M78.8,67.9l23,23.1l2.6-2.6l-23-23.1
			L78.8,67.9z M31,31.9l26.3,26.5l2.6-2.6L33.6,29.3L31,31.9z M37.1,25.8l26.3,26.5l2.6-2.6L39.6,23.2L37.1,25.8z M102.6,19.8
			l8.6,8.7l2.9-3c2.4-2.4,2.4-6.3,0-8.7c-2.3-2.3-6.3-2.3-8.6,0L102.6,19.8z M29,15c-1.6,0-3.1,0.6-4.3,1.8c-2.4,2.4-2.4,6.3,0,8.7
			l2.9,2.9l8.6-8.7l-3-3C32.1,15.6,30.6,15,29,15z"/>
	</g>
</g>
<g class="st0">
	<defs>
		<rect id="SVGID_5_" x="0.8" y="10.1" width="137.2" height="102.6"/>
	</defs>
	<clipPath id="SVGID_6_" class="st1">
		<use xlink:href="#SVGID_5_"  style="overflow:visible;"/>
	</clipPath>
	<g class="st5">
		<path class="st3" d="M129.2,112.8H9.6c-4.9,0-8.8-4.2-8.8-9.4v-7.6h10.1V19.5c0-5.2,4-9.4,8.8-9.4h99.4c4.9,0,8.8,4.2,8.8,9.4
			v76.3H138v7.6C138,108.6,134,112.8,129.2,112.8z M5.6,100.7v2.7c0,2.5,1.8,4.5,4,4.5h119.6c2.2,0,4-2,4-4.5v-2.7H5.6z M15.8,95.8
			H123V19.5c0-2.5-1.8-4.5-4-4.5H19.7c-2.2,0-4,2-4,4.5V95.8z M65.7,85.6L61,84.4l13.4-55.2l4.7,1.1L65.7,85.6z M87.8,79.4l-3.6-3.3
			l17.1-18.6L84.2,39l3.6-3.3L108,57.5L87.8,79.4z M53.1,79.4L32.9,57.5l20.1-21.9l3.6,3.3L39.5,57.5l17.1,18.6L53.1,79.4z"/>
	</g>
</g>
<g>
	<defs>
		<rect id="SVGID_7_" x="19.7" y="12.7" width="99.4" height="97.4"/>
	</defs>
	<clipPath id="SVGID_8_">
		<use xlink:href="#SVGID_7_"  style="overflow:visible;"/>
	</clipPath>
	<g class="st6">
		<path class="st3" d="M54.2,110.2h-7.4c-2.9,0-5.3-2.4-5.3-5.3V79.7h-1.1c-4.5,0-8.3-3-9.6-7c-6.3-0.9-11.1-6.3-11.1-12.8
			c0-6.5,4.8-11.9,11.1-12.8c1.3-4.1,5.1-7,9.6-7H50c9.4,0,18.6-1.7,27.4-5.1l25.5-12.6v-1.5c0-4.5,3.6-8.1,8.1-8.1
			c4.5,0,8.1,3.6,8.1,8.1V99c0,4.5-3.6,8.1-8.1,8.1c-4.5,0-8.1-3.6-8.1-8.1v-1.5L77.2,84.8c-3.4-1.3-7-2.4-10.6-3.2v2.5
			c0,1.5-0.6,3-1.7,4l-5.2,5.2c-0.2,0.2-0.2,0.4-0.2,0.6v11C59.6,107.8,57.2,110.2,54.2,110.2z M46.4,79.7v25.1
			c0,0.2,0.2,0.4,0.4,0.4h7.4c0.2,0,0.4-0.2,0.4-0.4v-11c0-1.5,0.6-3,1.7-4l5.2-5.2c0.2-0.2,0.2-0.4,0.2-0.6v-3.4
			C57.9,80,54,79.7,50,79.7H46.4z M111,17.6c-1.8,0-3.2,1.4-3.2,3.2V99c0,1.8,1.4,3.2,3.2,3.2c1.8,0,3.2-1.4,3.2-3.2V20.8
			C114.2,19.1,112.8,17.6,111,17.6z M66.6,76.6c4.3,0.9,8.4,2.1,12.5,3.7l23.7,11.8V27.8L79.4,39.4c-4.2,1.6-8.4,2.9-12.7,3.8V76.6z
			 M40.4,45c-2.9,0-5.2,2.3-5.2,5.2v19.5c0,2.9,2.3,5.2,5.2,5.2H50c4,0,7.9,0.3,11.8,0.9V44.1C57.9,44.7,54,45,50,45H40.4z
			 M30.3,52.2c-3.3,1-5.8,4.1-5.8,7.7s2.4,6.7,5.8,7.7V52.2z"/>
	</g>
</g>
<g class="st0">
	<defs>
		<rect id="SVGID_9_" x="22.2" y="14.3" width="94.3" height="94.3"/>
	</defs>
	<clipPath id="SVGID_10_" class="st1">
		<use xlink:href="#SVGID_9_"  style="overflow:visible;"/>
	</clipPath>
	<g class="st7">
		<path class="st3" d="M80.2,108.6H58.6L56.9,99c-1.8-0.6-3.6-1.3-5.2-2.2l-8,5.6L28.4,87.2l5.6-8c-0.8-1.7-1.6-3.4-2.2-5.2
			l-9.6-1.7V50.7l9.6-1.7c0.6-1.8,1.3-3.6,2.2-5.2l-5.6-8l15.2-15.2l8,5.6c1.7-0.8,3.4-1.6,5.2-2.2l1.7-9.6h21.5l1.7,9.6
			c1.8,0.6,3.6,1.3,5.2,2.2l8-5.6l15.2,15.2l-5.6,8c0.8,1.7,1.6,3.4,2.2,5.2l9.6,1.7v21.5l-9.6,1.7c-0.6,1.8-1.3,3.6-2.2,5.2l5.6,8
			l-15.2,15.2l-8-5.6c-1.7,0.8-3.4,1.6-5.2,2.2L80.2,108.6z M62.7,103.7h13.4l1.5-8.5l1.5-0.4c2.5-0.7,4.8-1.7,7.1-2.9l1.3-0.7
			l7.1,5l9.5-9.5l-5-7.1l0.7-1.3c1.2-2.2,2.2-4.6,2.9-7.1l0.4-1.5l8.5-1.5V54.8l-8.5-1.5l-0.4-1.5c-0.7-2.5-1.7-4.8-2.9-7.1
			l-0.7-1.3l5-7.1l-9.5-9.5l-7.1,5l-1.3-0.7c-2.2-1.2-4.6-2.2-7.1-2.9l-1.5-0.4l-1.5-8.5H62.7l-1.5,8.5l-1.5,0.4
			c-2.5,0.7-4.9,1.7-7.1,2.9l-1.3,0.7l-7.1-5l-9.5,9.5l5,7.1L39,44.7c-1.2,2.2-2.2,4.6-2.9,7.1l-0.4,1.5l-8.5,1.5v13.4l8.5,1.5
			l0.4,1.5c0.7,2.5,1.7,4.8,2.9,7.1l0.7,1.3l-5,7.1l9.5,9.5l7.1-5l1.3,0.7c2.2,1.2,4.6,2.2,7.1,2.9l1.5,0.4L62.7,103.7z M69.3,85.6
			L48.5,73.5V49.4l20.9-12.1l20.9,12.1v24.1L69.3,85.6z M71.8,62.9v15.7l13.6-7.8V55L71.8,62.9z M53.3,70.7l13.6,7.8V62.9L53.3,55
			V70.7z M55.8,50.8l13.6,7.8l13.6-7.8L69.3,43L55.8,50.8z"/>
	</g>
</g>
<g class="st0">
	<defs>
		<rect id="SVGID_11_" x="19.2" y="11.2" width="100.4" height="100.4"/>
	</defs>
	<clipPath id="SVGID_12_" class="st1">
		<use xlink:href="#SVGID_11_"  style="overflow:visible;"/>
	</clipPath>
	<g class="st8">
		<path class="st3" d="M119.6,111.7H19.2V11.2H24v95.6h95.6V111.7z M39.4,97.1c-4.8,0-8.8-3.9-8.8-8.8c0-4.8,3.9-8.8,8.8-8.8
			c0.9,0,1.9,0.2,2.7,0.4l12.6-18.7c-1.3-1.5-2-3.5-2-5.6c0-4.8,3.9-8.8,8.8-8.8c4.8,0,8.8,3.9,8.8,8.8c0,0.8-0.1,1.5-0.3,2.2
			l9.2,5.4c2.2-2.1,5.8-2.9,8.7-2l12.6-18.7c-1.3-1.5-2-3.5-2-5.6c0-4.8,3.9-8.8,8.8-8.8c4.8,0,8.8,3.9,8.8,8.8s-3.9,8.8-8.8,8.8
			c-0.9,0-1.9-0.2-2.7-0.4L91.9,64c1.3,1.5,2,3.5,2,5.6c0,4.8-3.9,8.8-8.8,8.8c-4.8,0-8.8-3.9-8.8-8.8c0-0.8,0.1-1.5,0.3-2.2
			L67.5,62c-2.2,2.1-5.8,3-8.7,2L46.1,82.7c1.3,1.5,2,3.5,2,5.6C48.2,93.2,44.2,97.1,39.4,97.1z M39.4,84.4c-2.2,0-3.9,1.8-3.9,3.9
			c0,2.2,1.8,3.9,3.9,3.9c2.2,0,3.9-1.8,3.9-3.9C43.3,86.2,41.5,84.4,39.4,84.4z M85.2,65.7c-2.2,0-3.9,1.8-3.9,3.9
			c0,2.2,1.8,3.9,3.9,3.9c2.2,0,3.9-1.8,3.9-3.9C89.1,67.5,87.3,65.7,85.2,65.7z M61.5,51.8c-2.2,0-3.9,1.8-3.9,3.9
			c0,2.2,1.8,3.9,3.9,3.9c2.2,0,3.9-1.8,3.9-3.9C65.4,53.5,63.6,51.8,61.5,51.8z M107.2,33c-2.2,0-3.9,1.8-3.9,3.9
			c0,2.2,1.8,3.9,3.9,3.9s3.9-1.8,3.9-3.9C111.1,34.8,109.4,33,107.2,33z"/>
	</g>
</g>
<g class="st0">
	<defs>
		<rect id="SVGID_13_" x="24.4" y="7" width="89.9" height="104.9"/>
	</defs>
	<clipPath id="SVGID_14_" class="st1">
		<use xlink:href="#SVGID_13_"  style="overflow:visible;"/>
	</clipPath>
	<g class="st9">
		<path class="st3" d="M98.2,111.9c-6.1,0-11.1-4.8-11.1-10.6c0-5,3.7-9.3,8.6-10.3v-8.5H82.1V48.1H87v17.5h7
			c8.5,0,15.5-6.5,15.5-14.5c0-6.9-5.2-12.9-12.4-14.2l-1.8-0.3l-0.2-1.8c-0.7-8.6-9.5-15.1-19.1-12.9l-1.7,0.4l-0.9-1.5
			c-3.3-5.4-9.3-8.7-15.9-8.7c-10.1,0-18.3,7.7-18.3,17.2c0,1.8,0.3,3.7,1,5.5l0.8,2.2l-2.2,0.9c-5.8,2.3-9.6,7.5-9.6,13.4
			c0,8,6.9,14.5,15.5,14.5h7V48.1h4.9v34.4H43V91c4.9,1.1,8.6,5.3,8.6,10.3c0,5.8-5,10.6-11,10.6c-6.1,0-11.1-4.8-11.1-10.6
			c0-5,3.7-9.3,8.6-10.3V77.6h13.6v-7.2h-7c-11.2,0-20.3-8.7-20.3-19.4c0-7.2,4.1-13.6,10.6-17c-0.4-1.6-0.6-3.3-0.6-4.9
			C34.4,16.9,44.8,7,57.6,7c7.6,0,14.8,3.7,19.1,9.6c11.1-1.7,21.2,5.7,23.1,15.8c8.6,2.4,14.6,10,14.6,18.6
			c0,10.7-9.1,19.4-20.3,19.4h-7v7.2h13.6V91c4.9,1.1,8.6,5.3,8.6,10.3C109.3,107.2,104.3,111.9,98.2,111.9z M98.2,95.6
			c-3.4,0-6.2,2.6-6.2,5.7c0,3.2,2.8,5.7,6.2,5.7c3.4,0,6.2-2.6,6.2-5.7C104.4,98.2,101.6,95.6,98.2,95.6z M40.6,95.6
			c-3.4,0-6.2,2.6-6.2,5.7c0,3.2,2.8,5.7,6.2,5.7c3.4,0,6.2-2.6,6.2-5.7C46.7,98.2,44,95.6,40.6,95.6z M69.5,111.9
			c-6.1,0-11-4.8-11-10.6c0-5,3.7-9.3,8.6-10.3V48.1h4.9V91c4.9,1.1,8.6,5.3,8.6,10.3C80.6,107.2,75.6,111.9,69.5,111.9z M69.5,95.6
			c-3.4,0-6.2,2.6-6.2,5.7c0,3.2,2.8,5.7,6.2,5.7c3.4,0,6.2-2.6,6.2-5.7C75.7,98.2,72.9,95.6,69.5,95.6z"/>
	</g>
</g>
<g class="st0">
	<defs>
		<rect id="SVGID_15_" x="22.1" y="11.8" width="94.5" height="99.2"/>
	</defs>
	<clipPath id="SVGID_16_" class="st1">
		<use xlink:href="#SVGID_15_"  style="overflow:visible;"/>
	</clipPath>
	<g class="st10">
		<path class="st3" d="M69.4,111.1c-21.2,0-40-14.2-45.7-34.6l4.7-1.3c5.1,18.3,21.9,31,41,31c19.1,0,35.9-12.7,41-31l4.7,1.3
			C109.4,96.9,90.6,111.1,69.4,111.1z M69.4,92.3c-15.7,0-28.5-12.7-28.5-28.4c0-15.6,12.8-28.4,28.5-28.4
			c15.7,0,28.5,12.7,28.5,28.4C97.9,79.5,85.1,92.3,69.4,92.3z M54.5,82.1c4.1,3.3,9.2,5.3,14.9,5.3c12.2,0,22.3-9.2,23.5-21.1H70.4
			L54.5,82.1z M66.8,40.5C55,41.8,45.8,51.8,45.8,63.9c0,5.6,2,10.8,5.3,14.8L66.8,63V40.5z M71.7,61.5h21.2
			c-1.2-11.1-10.1-19.9-21.2-20.9V61.5z M111.8,60.8c-1-13.8-8.6-26-20.4-33.1c-1.8,2.2-4.5,3.6-7.6,3.6c-5.4,0-9.8-4.4-9.8-9.7
			s4.4-9.7,9.8-9.7c5.4,0,9.8,4.4,9.8,9.7c0,0.6-0.1,1.1-0.1,1.7c13.4,7.9,22,21.6,23.2,37.2L111.8,60.8z M83.8,16.7
			c-2.7,0-4.9,2.2-4.9,4.9s2.2,4.9,4.9,4.9s4.9-2.2,4.9-4.9S86.6,16.7,83.8,16.7z M27,60.8l-4.9-0.4c1.5-20.3,15.8-37.3,35.6-42.3
			l1.2,4.7C41.1,27.4,28.3,42.6,27,60.8z"/>
	</g>
</g>
</svg>
