<svg width="144" height="27" viewBox="0 0 144 27" fill="none" xmlns="http://www.w3.org/2000/svg">
<path d="M38.1763 22.4204C38.1763 22.8234 37.8972 23.1021 37.4961 23.1021H35.4482C35.047 23.1021 34.768 22.8234 34.768 22.4204V2.1072C34.768 1.70417 35.047 1.42553 35.4506 1.42553H41.0016C44.4447 1.42553 47.3298 3.34614 47.3298 6.56541V9.69262C47.3298 12.3571 45.1897 15.8251 41.0041 15.8251H38.1813V22.4204H38.1763ZM38.1763 12.79H40.4709C42.1775 12.79 43.9116 12.0461 43.9116 9.69262V7.37147C43.9116 5.01797 42.2373 4.4607 40.4385 4.4607H38.1738V12.79H38.1763ZM60.3799 1.48524C60.7836 1.48524 61.0626 1.76388 61.0626 2.16691V4.05767C61.0626 4.4607 60.7836 4.73933 60.3799 4.73933H53.3093V10.3419H59.8219C60.2255 10.3419 60.5045 10.6206 60.5045 11.0236V12.7278C60.5045 13.1308 60.2255 13.4095 59.8219 13.4095H53.3093V19.9127H60.3799C60.7836 19.9127 61.0626 20.1913 61.0626 20.5918V22.4801C61.0626 22.913 60.7836 23.1618 60.3799 23.1618H50.5811C50.1775 23.1618 49.8985 22.8831 49.8985 22.4801V2.16691C49.8985 1.76637 50.1775 1.48524 50.5811 1.48524H60.3799ZM67.8044 22.4801C67.8044 22.8831 67.5254 23.1618 67.1218 23.1618H65.0738C64.6727 23.1618 64.3936 22.8831 64.3936 22.4801V2.16691C64.3936 1.76388 64.6727 1.48524 65.0763 1.48524H70.6272C74.1003 1.48524 76.953 3.46805 76.953 6.68731V9.53589C76.953 12.5711 75.7446 14.1508 73.45 15.1733L77.1099 22.2637C77.3566 22.7289 77.2345 23.1618 76.8309 23.1618H74.3494C73.9458 23.1618 73.45 22.8533 73.2956 22.5125L70.0093 15.6684H67.8069V22.4801H67.8044ZM67.8044 12.6034H70.4404C71.7434 12.6034 73.5422 11.8919 73.5422 9.53838V7.49337C73.5422 5.13988 71.868 4.5204 70.0392 4.5204H67.8069V12.6034H67.8044ZM97.7864 1.48524C98.19 1.48524 98.469 1.76388 98.469 2.16691V4.05767C98.469 4.4607 98.19 4.73933 97.7864 4.73933H90.7182V10.3419H97.2308C97.6344 10.3419 97.9109 10.6206 97.9109 11.0236V12.7278C97.9109 13.1308 97.6319 13.4095 97.2308 13.4095H90.7182V19.9127H97.7889C98.1925 19.9127 98.4715 20.1913 98.4715 20.5918V22.4801C98.4715 22.913 98.1925 23.1618 97.7889 23.1618H87.99C87.5864 23.1618 87.3074 22.8831 87.3074 22.4801V2.16691C87.3074 1.76637 87.5864 1.48524 87.99 1.48524H97.7864ZM130.282 7.64513C130.282 8.04816 130.003 8.3268 129.602 8.3268H127.554C127.15 8.3268 126.871 8.04816 126.871 7.64513V7.3043C126.871 4.73436 124.701 4.14723 123.555 4.14723C122.409 4.14723 120.237 4.73685 120.237 7.67747V16.8427C120.237 19.7833 122.407 20.3729 123.555 20.3729C124.517 20.3729 126.874 19.7833 126.874 17.2134V16.9049C126.874 16.5018 127.153 16.2232 127.557 16.2232H129.604C130.006 16.2232 130.287 16.5018 130.287 16.9049V17.4621C130.287 21.3332 127.497 23.7788 123.682 23.7788C120.022 23.7788 116.828 21.3332 116.828 17.4621V7.05551C116.828 3.18443 119.99 0.738888 123.558 0.738888C127.123 0.738888 130.287 3.18443 130.287 7.05551V7.64513H130.282ZM143.317 1.48524C143.721 1.48524 143.998 1.76388 143.998 2.16691V4.05767C143.998 4.4607 143.721 4.73933 143.317 4.73933H136.247V10.3419H142.759C143.163 10.3419 143.442 10.6206 143.442 11.0236V12.7278C143.442 13.1308 143.163 13.4095 142.759 13.4095H136.247V19.9127H143.317C143.721 19.9127 143.998 20.1913 143.998 20.5918V22.4801C143.998 22.913 143.721 23.1618 143.317 23.1618H133.519C133.115 23.1618 132.836 22.8831 132.836 22.4801V2.16691C132.836 1.76637 133.115 1.48524 133.519 1.48524H143.317ZM83.1018 1.48524H81.0564C80.6528 1.48524 80.3737 1.76388 80.3737 2.16691V22.4801C80.3737 22.8831 80.6528 23.1618 81.0564 23.1618H83.1018C83.5055 23.1618 83.7845 22.8831 83.7845 22.4801V2.16691C83.7845 1.76388 83.503 1.48524 83.1018 1.48524ZM113.923 2.16691C113.923 1.76388 113.769 1.48773 113.365 1.48773H111.357C110.954 1.48773 110.675 1.76637 110.675 2.1694V15.5142L104.845 2.16691C104.665 1.81115 104.541 1.51509 104.149 1.49022C104.132 1.48773 104.117 1.48524 104.1 1.48524H102.216C101.813 1.48524 101.533 1.76388 101.533 2.16691V22.4801C101.533 22.8359 101.795 23.1618 102.186 23.1618H104.1C104.503 23.1618 104.782 22.8831 104.782 22.4801V9.19008L110.303 22.2662C110.425 22.5871 110.899 23.1643 111.357 23.1643H113.273C113.677 23.1643 113.923 22.8856 113.923 22.4826V2.16691ZM26.7082 11.7973L32.3214 22.4801C32.568 22.821 32.3513 23.1618 31.9477 23.1618H29.0651C28.6316 23.1618 28.3525 22.821 28.1034 22.4801L24.289 14.7404L20.3202 22.4801C20.0735 22.821 19.8866 23.1618 19.483 23.1618H16.7225C16.289 23.1618 16.01 22.821 16.2591 22.4801L22.0891 11.7675L16.568 2.16691C16.3189 1.82607 16.5357 1.48524 16.9393 1.48524H20.1333C20.5369 1.48524 20.6914 1.82607 20.9405 2.16691L24.446 9.1652L28.0112 2.16691C28.2604 1.82607 28.6316 1.48524 29.0352 1.48524H31.5765C32.0125 1.48524 32.2292 1.82607 32.0125 2.16691L26.7082 11.7973ZM4.40237 3.96313H7.00841C7.41202 3.96313 7.69106 3.68449 7.69106 3.28146V0.681668C7.69106 0.278638 7.41202 0 7.00841 0H4.40237C4.00125 0 3.71971 0.278638 3.71971 0.681668V3.28146C3.72221 3.68449 4.00125 3.96313 4.40237 3.96313ZM7.00841 23.1618H0.682653C0.279041 23.1618 0 22.8831 0 22.4801V20.7784C0 20.3754 0.279041 20.0968 0.682653 20.0968H4.28029V10.745H1.61196C1.20835 10.745 0.929306 10.4663 0.929306 10.0633V8.35914C0.929306 7.95611 1.20835 7.67747 1.61196 7.67747H7.00841C7.41202 7.67747 7.69106 7.95611 7.69106 8.35914V16.472V20.0943V22.4776C7.69106 22.8831 7.41202 23.1618 7.00841 23.1618ZM14.3557 23.1618H9.5123C9.10869 23.1618 8.82965 23.4404 8.82965 23.841V25.5451C8.82965 25.9482 9.10869 26.2268 9.5123 26.2268H14.3581C14.7618 26.2268 15.0408 25.9482 15.0408 25.5451V23.8435C15.0383 23.4404 14.7593 23.1618 14.3557 23.1618Z" fill="#010101"/>
</svg>
